{
	"asset":{
		"generator":"Khronos glTF Blender I/O v4.5.51",
		"version":"2.0"
	},
	"scene":0,
	"scenes":[
		{
			"name":"Scene",
			"nodes":[
				0
			]
		}
	],
	"nodes":[
		{
			"mesh":0,
			"name":"ASSET"
		}
	],
	"materials":[
		{
			"doubleSided":true,
			"name":"ASSET_MAT_MR.007",
			"normalTexture":{
				"index":0
			},
			"occlusionTexture":{
				"index":1
			},
			"pbrMetallicRoughness":{
				"baseColorTexture":{
					"index":2
				},
				"metallicRoughnessTexture":{
					"index":1
				}
			}
		}
	],
	"meshes":[
		{
			"name":"ASSET.003",
			"primitives":[
				{
					"attributes":{
						"POSITION":0,
						"NORMAL":1,
						"TEXCOORD_0":2
					},
					"indices":3,
					"material":0
				}
			]
		}
	],
	"textures":[
		{
			"sampler":0,
			"source":0
		},
		{
			"sampler":0,
			"source":1
		},
		{
			"sampler":0,
			"source":2
		}
	],
	"images":[
		{
			"mimeType":"image/png",
			"name":"normalTexture0",
			"uri":"normalTexture0.png"
		},
		{
			"mimeType":"image/png",
			"name":"occlusionTexture1",
			"uri":"occlusionTexture1.png"
		},
		{
			"mimeType":"image/png",
			"name":"baseColorTexture2",
			"uri":"baseColorTexture2.png"
		}
	],
	"accessors":[
		{
			"bufferView":0,
			"componentType":5126,
			"count":124069,
			"max":[
				0.3796839416027069,
				0.07428005337715149,
				0.15000000596046448
			],
			"min":[
				-0.3796839416027069,
				0,
				-0.15000000596046448
			],
			"type":"VEC3"
		},
		{
			"bufferView":1,
			"componentType":5126,
			"count":124069,
			"type":"VEC3"
		},
		{
			"bufferView":2,
			"componentType":5126,
			"count":124069,
			"type":"VEC2"
		},
		{
			"bufferView":3,
			"componentType":5125,
			"count":566514,
			"type":"SCALAR"
		}
	],
	"bufferViews":[
		{
			"buffer":0,
			"byteLength":1488828,
			"byteOffset":0,
			"target":34962
		},
		{
			"buffer":0,
			"byteLength":1488828,
			"byteOffset":1488828,
			"target":34962
		},
		{
			"buffer":0,
			"byteLength":992552,
			"byteOffset":2977656,
			"target":34962
		},
		{
			"buffer":0,
			"byteLength":2266056,
			"byteOffset":3970208,
			"target":34963
		}
	],
	"samplers":[
		{
			"magFilter":9729,
			"minFilter":9987
		}
	],
	"buffers":[
		{
			"byteLength":6236264,
			"uri":"Untitled.bin"
		}
	]
}
